<?xml version="1.0" encoding="utf-8"?>
<!-- Generator: Adobe Illustrator 19.2.1, SVG Export Plug-In . SVG Version: 6.00 Build 0)  -->
<svg version="1.1" id="Layer_1" xmlns="http://www.w3.org/2000/svg" xmlns:xlink="http://www.w3.org/1999/xlink" x="0px" y="0px"
	 viewBox="0 0 25 22" style="enable-background:new 0 0 25 22;" xml:space="preserve" width="20px" height="20px">
<style type="text/css">
	.st0{fill:#30A592;}
</style>
<title>Page 1</title>
<desc>Created with Sketch.</desc>
<g id="Welcome">
	<g id="Contact-Page-Updated" transform="translate(-948.000000, -1577.000000)">
		<g id="Page-1" transform="translate(948.000000, 1577.000000)">
			<g id="Clip-2">
			</g>
			<path id="social" class="st0" d="M12.5,1.4C6.8,1.4,2.3,6.1,2.3,11.8c0,4.5,3,8.5,6.9,9.9c0.5,0.1,0.7-0.2,0.7-0.5
				c0-0.2,0-0.9,0-1.8C7,20.1,6.5,18,6.5,18c-0.5-1.3-1.1-1.5-1.1-1.5c-0.9-0.7,0.1-0.7,0.1-0.7c1,0.1,1.6,1,1.6,1
				c0.9,1.6,2.4,1.1,3,0.9c0.1-0.7,0.3-1.1,0.7-1.4C8.4,16.2,6,15.3,6,11.3c0-1.1,0.3-2,1-2.8C6.9,8.3,6.6,7.2,7.2,5.8
				c0,0,0.9-0.2,2.8,1c0.8-0.2,1.7-0.3,2.5-0.3c0.9,0,1.7,0.1,2.5,0.3c1.9-1.4,2.8-1,2.8-1c0.6,1.5,0.2,2.5,0.1,2.7
				c0.7,0.7,1,1.7,1,2.8c0,4-2.4,4.9-4.7,5.1c0.3,0.3,0.7,0.9,0.7,1.9c0,1.4,0,2.5,0,2.8c0,0.2,0.2,0.6,0.7,0.5
				c4.1-1.4,6.9-5.2,6.9-9.9C22.6,6.1,18.1,1.4,12.5,1.4"/>
		</g>
	</g>
</g>
</svg>
