<?xml version="1.0" encoding="utf-8"?>
<!-- Generator: Adobe Illustrator 19.2.1, SVG Export Plug-In . SVG Version: 6.00 Build 0)  -->
<svg version="1.1" id="Layer_1" xmlns="http://www.w3.org/2000/svg" xmlns:xlink="http://www.w3.org/1999/xlink" x="0px" y="0px"
	 viewBox="0 0 23 20" style="enable-background:new 0 0 23 20;" xml:space="preserve" width="20px" height="20px">
<style type="text/css">
	.st0{fill:#30A592;}
</style>
<title>Page 1</title>
<desc>Created with Sketch.</desc>
<g id="Welcome">
	<g id="Contact-Page-Updated" transform="translate(-286.000000, -717.000000)">
		<g id="Page-1" transform="translate(286.000000, 717.000000)">
			<g id="Clip-2">
			</g>
			<path id="social" class="st0" d="M22.3,2.1c-0.9,0.6-1.8,0.9-2.8,1.1c-0.8-0.9-1.9-1.5-3.2-1.5c-2.5,0-4.4,2-4.4,4.4
				c0,0.3,0,0.7,0.1,1C8.3,6.9,5,5.2,2.9,2.5C2.4,3.2,2.2,4,2.2,4.8c0,1.6,0.8,3,1.9,3.8C3.5,8.5,2.8,8.3,2.2,8l0,0
				c0,2.2,1.5,4,3.5,4.4c-0.3,0.1-0.8,0.1-1.1,0.1c-0.3,0-0.6,0-0.8-0.1c0.6,1.8,2.2,3.1,4.1,3.1c-1.5,1.2-3.4,1.9-5.5,1.9
				c-0.3,0-0.7,0-1-0.1c1.9,1.2,4.3,2,6.8,2c8.2,0,12.6-6.8,12.6-12.7c0-0.2,0-0.3,0-0.6c0.9-0.7,1.6-1.4,2.2-2.3
				c-0.8,0.3-1.6,0.6-2.5,0.7C21.3,4,22,3.1,22.3,2.1"/>
		</g>
	</g>
</g>
</svg>
