<?xml version="1.0" encoding="utf-8"?>
<!-- Generator: Adobe Illustrator 19.2.1, SVG Export Plug-In . SVG Version: 6.00 Build 0)  -->
<svg version="1.1" id="Layer_1" xmlns="http://www.w3.org/2000/svg" xmlns:xlink="http://www.w3.org/1999/xlink" x="0px" y="0px"
	 viewBox="0 0 20 20" style="enable-background:new 0 0 20 20;" xml:space="preserve" width="20px" height="20px">
<style type="text/css">
	.st0{fill:#FFFFFF;}
	.st1{fill:#30A592;}
</style>
<g>
	<polygon id="path-1" class="st0" points="19,20 19,1.9 0.9,1.9 0.9,20 	"/>
</g>
<title>Page 1 Copy 4</title>
<desc>Created with Sketch.</desc>
<g id="Welcome">
	<g id="Contact-Page-Updated" transform="translate(-677.000000, -717.000000)">
		<g id="Page-1-Copy-4" transform="translate(677.000000, 717.000000)">
			<g id="Group-3" transform="translate(0.000000, 0.100812)">
				<g id="Clip-2">
				</g>
				<path id="social" class="st1" d="M9.9,1.8c-2.5,0-2.7,0-3.8,0C5.2,1.9,4.5,2.1,4,2.3S3,2.9,2.4,3.4S1.6,4.3,1.4,5
					C1.1,5.6,1,6.1,0.9,7.2c0,0.9,0,1.3,0,3.8s0,2.7,0,3.8c0,0.9,0.2,1.6,0.5,2.2c0.2,0.6,0.6,1.1,1,1.6c0.5,0.5,1,0.8,1.6,1
					c0.6,0.2,1.2,0.3,2.2,0.5c0.9,0,1.3,0,3.8,0s2.7,0,3.8,0c0.9,0,1.6-0.2,2.2-0.5c0.6-0.2,1.1-0.6,1.6-1c0.5-0.5,0.8-1,1-1.6
					c0.2-0.6,0.3-1.2,0.5-2.2c0-0.9,0-1.2,0-3.8s0-2.7,0-3.8c0-0.9-0.2-1.6-0.5-2.2c-0.2-0.6-0.6-1.1-1-1.6
					c-0.5-0.5-0.9-0.9-1.6-1.1c-0.6-0.2-1.3-0.3-2.2-0.5C12.7,1.8,12.4,1.8,9.9,1.8 M9.9,3.5c2.4,0,2.7,0,3.6,0
					c0.9,0,1.4,0.2,1.7,0.3c0.5,0.1,0.8,0.3,1,0.7c0.3,0.3,0.5,0.6,0.7,1c0.1,0.3,0.2,0.8,0.3,1.7c0,0.9,0,1.2,0,3.6s0,2.7,0,3.6
					s-0.2,1.4-0.3,1.7c-0.1,0.5-0.3,0.7-0.7,1c-0.3,0.3-0.6,0.6-1,0.7c-0.3,0.1-0.8,0.2-1.7,0.3c-0.9,0-1.3,0-3.6,0s-2.7,0-3.6,0
					c-0.9,0-1.4-0.2-1.7-0.3c-0.5-0.1-0.7-0.3-1-0.7s-0.5-0.6-0.7-1c-0.1-0.3-0.2-0.8-0.3-1.7c0-0.9,0-1.2,0-3.6s0-2.7,0-3.6
					s0.2-1.4,0.3-1.7c0.2-0.5,0.5-0.8,0.7-1c0.3-0.3,0.6-0.6,1-0.7c0.3-0.1,0.9-0.3,1.7-0.3C7.3,3.5,7.5,3.5,9.9,3.5"/>
			</g>
			<path id="social_1_" class="st1" d="M9.9,14c-1.7,0-3-1.4-3-3c0-1.7,1.4-3.1,3-3.1s3,1.4,3,3C13,12.6,11.6,14,9.9,14 M9.9,6.4
				c-2.6,0-4.7,2-4.7,4.7s2,4.7,4.7,4.7s4.7-2,4.7-4.7S12.5,6.4,9.9,6.4"/>
			<path id="social_2_" class="st1" d="M15.8,6.1c0,0.6-0.5,1.1-1.1,1.1c-0.6,0-1.1-0.5-1.1-1.1S14,5,14.7,5
				C15.3,5.1,15.8,5.6,15.8,6.1"/>
		</g>
	</g>
</g>
</svg>
