<?xml version="1.0" encoding="utf-8"?>
<!-- Generator: Adobe Illustrator 19.2.1, SVG Export Plug-In . SVG Version: 6.00 Build 0)  -->
<svg version="1.1" id="Layer_1" xmlns="http://www.w3.org/2000/svg" xmlns:xlink="http://www.w3.org/1999/xlink" x="0px" y="0px"
	 viewBox="0 0 20 20" style="enable-background:new 0 0 20 20;" xml:space="preserve" width="20px" height="20px">
<style type="text/css">
	.st0{fill:#FFFFFF;}
	.st1{fill:#30A592;}
</style>
<g>
	<polygon id="path-3" class="st0" points="7.2,16.2 17.7,16.2 17.7,10.1 17.7,4.1 7.2,4.1 	"/>
</g>
<title>Page 1 Copy 2</title>
<desc>Created with Sketch.</desc>
<g id="Welcome">
	<g id="Contact-Page-Updated" transform="translate(-812.000000, -1577.000000)">
		<g id="Page-1-Copy-2" transform="translate(812.000000, 1577.000000)">
			<polygon id="social" class="st1" points="2.7,20 6.1,20 6.1,8.1 2.7,8.1 			"/>
			<g id="Group-8" transform="translate(0.000000, 0.495521)">
				<g id="Group-4">
					<g id="Clip-3">
					</g>
					<path id="social_1_" class="st1" d="M4.4,6c1,0,1.9-0.9,1.9-2.2c0-1.1-0.9-2.2-1.9-2.2S2.5,2.6,2.5,3.8C2.5,5,3.4,6,4.4,6"/>
				</g>
				<g id="Group-7" transform="translate(4.762017, 4.697868)">
					<g id="Clip-6">
					</g>
					<path id="social_2_" class="st1" d="M13.9,8.2c0-3.2-0.7-5.7-4-5.7c-1.7,0.1-2.7,1-3.2,1.9l0,0V2.9H3.5v11.8h3.4V8.9
						c0-1.6,0.2-3.1,2-3.1c1.7,0,1.7,1.8,1.7,3.2v5.8H14V8.2H13.9z"/>
				</g>
			</g>
		</g>
	</g>
</g>
</svg>
