<?xml version="1.0" encoding="utf-8"?>
<!-- Generator: Adobe Illustrator 19.2.1, SVG Export Plug-In . SVG Version: 6.00 Build 0)  -->
<svg version="1.1" id="Layer_1" xmlns="http://www.w3.org/2000/svg" xmlns:xlink="http://www.w3.org/1999/xlink" x="0px" y="0px"
	 viewBox="0 0 22 22" style="enable-background:new 0 0 22 22;" xml:space="preserve" width="20px" height="20px">
<style type="text/css">
	.st0{fill:#30A592;}
</style>
<title>Fill 1</title>
<desc>Created with Sketch.</desc>
<g id="Welcome">
	<g id="Contact-Page-Updated" transform="translate(-547.000000, -714.000000)">
		<path id="social" class="st0" d="M554.2,735.9c0,0.1,0.2,0.2,0.3,0.1c0.1-0.2,1.7-2.1,2.2-3.9c0.1-0.5,0.8-3.3,0.8-3.3
			c0.4,0.8,1.6,1.5,2.9,1.5c3.9,0,6.5-3.5,6.5-8.3c0-3.6-3-6.9-7.6-6.9c-5.7,0-8.6,4.1-8.6,7.5c0,2.1,0.8,3.9,2.5,4.6
			c0.3,0.1,0.5,0,0.6-0.3c0.1-0.2,0.2-0.7,0.2-1c0.1-0.3,0-0.4-0.2-0.7c-0.5-0.6-0.8-1.3-0.8-2.4c0-3,2.3-5.8,5.9-5.8
			c3.2,0,5,2,5,4.6c0,3.5-1.5,6.4-3.8,6.4c-1.3,0-2.2-1-1.9-2.3c0.4-1.5,1.1-3.2,1.1-4.3c0-1-0.5-1.8-1.6-1.8
			c-1.3,0-2.3,1.3-2.3,3.1c0,1.1,0.4,1.9,0.4,1.9s-1.3,5.6-1.6,6.6C553.8,733.2,554.2,735.6,554.2,735.9"/>
	</g>
</g>
</svg>
